0
SECTION
2
HEADER
9
$INSUNITS
70
4
9
$ACADVER
1
AC1014
9
$HANDSEED
5
FFFF
0
ENDSEC
0
SECTION
2
TABLES
0
TABLE
2
VPORT
5
8
100
AcDbSymbolTable
0
ENDTAB
0
TABLE
2
LTYPE
5
5
100
AcDbSymbolTable
0
LTYPE
5
14
100
AcDbSymbolTableRecord
100
AcDbLinetypeTableRecord
2
BYBLOCK
70
0
0
LTYPE
5
15
100
AcDbSymbolTableRecord
100
AcDbLinetypeTableRecord
2
BYLAYER
70
0
0
ENDTAB
0
TABLE
2
LAYER
5
2
100
AcDbSymbolTable
70
2
0
LAYER
5
50
100
AcDbSymbolTableRecord
100
AcDbLayerTableRecord
2
0
70
0
6
CONTINUOUS
0
ENDTAB
0
TABLE
2
STYLE
5
3
100
AcDbSymbolTable
70
1
0
STYLE
5
11
100
AcDbSymbolTableRecord
100
AcDbTextStyleTableRecord
2
STANDARD
70
0
0
ENDTAB
0
TABLE
2
VIEW
5
6
100
AcDbSymbolTable
70
0
0
ENDTAB
0
TABLE
2
UCS
5
7
100
AcDbSymbolTable
70
0
0
ENDTAB
0
TABLE
2
APPID
5
9
100
AcDbSymbolTable
70
2
0
APPID
5
12
100
AcDbSymbolTableRecord
100
AcDbRegAppTableRecord
2
ACAD
70
0
0
ENDTAB
0
TABLE
2
DIMSTYLE
5
A
100
AcDbSymbolTable
70
1
0
ENDTAB
0
TABLE
2
BLOCK_RECORD
5
1
100
AcDbSymbolTable
70
1
0
BLOCK_RECORD
5
1F
100
AcDbSymbolTableRecord
100
AcDbBlockTableRecord
2
*MODEL_SPACE
0
BLOCK_RECORD
5
1B
100
AcDbSymbolTableRecord
100
AcDbBlockTableRecord
2
*PAPER_SPACE
0
ENDTAB
0
ENDSEC
0
SECTION
2
BLOCKS
0
BLOCK
5
20
100
AcDbEntity
100
AcDbBlockBegin
2
*MODEL_SPACE
0
ENDBLK
5
21
100
AcDbEntity
100
AcDbBlockEnd
0
BLOCK
5
1C
100
AcDbEntity
100
AcDbBlockBegin
2
*PAPER_SPACE
0
ENDBLK
5
1D
100
AcDbEntity
100
AcDbBlockEnd
0
ENDSEC
0
SECTION
2
ENTITIES
0
LWPOLYLINE
5
100
100
AcDbEntity
8
0
100
AcDbPolyline
90
25
70
1
43
0.0
10
330.55994076322639
20
158.90595207601311
10
325.09263160067974
20
150.5328683835414
10
301.14561224021043
20
166.16937258842358
10
275.87022385100403
20
149.13455114014494
10
274.1935681966462
20
151.62228621782245
10
257.77451668397214
20
140.55635889905884
10
259.45117233833025
20
138.06862382138101
10
240.29561224021091
20
125.15837528282312
10
240.29561224021091
20
90.658375282823144
10
230.29561224021091
20
90.658375282823144
10
230.29561224021091
20
70.65837528282313
10
240.29561224021091
20
70.65837528282313
10
240.29561224021091
20
35.158375282823116
10
290.29561224021091
20
35.158375282823116
10
290.29561224021091
20
25.158375282823116
10
310.29561224021091
20
25.158375282823116
10
310.29561224021091
20
35.15837528282308
10
361.5155456629322
20
35.158375282822988
10
361.51554566293208
20
70.658375282822988
10
371.51554566293203
20
70.658375282822973
10
371.51554566293203
20
90.658375282822959
10
361.51554566293203
20
90.658375282822959
10
361.51554566293157
20
126.75007352646453
10
341.83879898562304
20
139.59825005844868
10
347.30610814816964
20
147.97133375092037
0
LWPOLYLINE
5
101
100
AcDbEntity
8
0
100
AcDbPolyline
90
4
70
1
43
0.0
10
338.40046842727861
20
145.30682982679326
10
331.61827063637656
20
149.73535024845629
10
333.31313647676609
20
152.33100619312216
10
340.09533426766808
20
147.9024857714596
0
LWPOLYLINE
5
102
100
AcDbEntity
8
0
100
AcDbPolyline
90
4
70
1
43
0.0
10
364.415545662932
20
76.558375282822965
10
367.51554566293203
20
76.558375282822965
10
367.51554566293203
20
84.658375282822959
10
364.415545662932
20
84.658375282822959
0
LWPOLYLINE
5
103
100
AcDbEntity
8
0
100
AcDbPolyline
90
4
70
1
43
0.0
10
234.29561224021089
20
76.558375282823135
10
237.39561224021088
20
76.558375282823135
10
237.39561224021088
20
84.658375282823144
10
234.29561224021089
20
84.658375282823144
0
LWPOLYLINE
5
104
100
AcDbEntity
8
0
100
AcDbPolyline
90
4
70
1
43
0.0
10
304.39561224021088
20
32.258375282823117
10
296.29561224021091
20
32.258375282823117
10
296.29561224021091
20
29.158375282823116
10
304.39561224021088
20
29.158375282823116
0
LWPOLYLINE
5
105
100
AcDbEntity
8
0
100
AcDbPolyline
90
4
70
1
43
0.0
10
311.51554566293208
20
50.518375282823023
10
307.41554566293206
20
50.518375282823023
10
307.41554566293206
20
60.618375282823024
10
311.51554566293208
20
60.618375282823024
0
LWPOLYLINE
5
106
100
AcDbEntity
8
0
100
AcDbPolyline
90
4
70
1
43
0.0
10
348.71554566293185
20
100.35837528282309
10
336.51554566293186
20
100.35837528282309
10
336.51554566293186
20
87.158375282823087
10
348.71554566293185
20
87.158375282823087
0
LWPOLYLINE
5
107
100
AcDbEntity
8
0
100
AcDbPolyline
90
4
70
1
43
0.0
10
305.11554566293182
20
87.158375282823087
10
321.11554566293188
20
87.158375282823087
10
321.11554566293188
20
99.35837528282309
10
305.11554566293182
20
99.35837528282309
0
LWPOLYLINE
5
108
100
AcDbEntity
8
0
100
AcDbPolyline
90
4
70
1
43
0.0
10
313.51554566293191
20
132.98837528282314
10
301.38554566293186
20
132.98837528282314
10
301.3855456629318
20
145.11837528282314
10
313.51554566293191
20
145.11837528282314
0
LWPOLYLINE
5
109
100
AcDbEntity
8
0
100
AcDbPolyline
90
4
70
1
43
0.0
10
299.3855456629318
20
145.11837528282314
10
299.3855456629318
20
132.98837528282314
10
287.25554566293181
20
132.98837528282314
10
287.25554566293181
20
145.11837528282314
0
LWPOLYLINE
5
110
100
AcDbEntity
8
0
100
AcDbPolyline
90
4
70
1
43
0.0
10
287.25554566293187
20
130.98837528282314
10
299.38554566293186
20
130.98837528282314
10
299.38554566293186
20
118.85837528282312
10
287.25554566293187
20
118.85837528282312
0
LWPOLYLINE
5
111
100
AcDbEntity
8
0
100
AcDbPolyline
90
4
70
1
43
0.0
10
301.38554566293186
20
130.98837528282314
10
313.51554566293191
20
130.98837528282314
10
313.51554566293191
20
118.85837528282312
10
301.38554566293186
20
118.85837528282312
0
CIRCLE
5
112
100
AcDbEntity
8
0
100
AcDbCircle
10
286.09561224021093
20
45.158375282823116
30
0
40
1.5000000000000002
210
0
220
0
230
1
0
CIRCLE
5
113
100
AcDbEntity
8
0
100
AcDbCircle
10
286.10474088751698
20
66.158373298723006
30
0
40
1.5000000000000002
210
0
220
0
230
1
0
LWPOLYLINE
5
114
100
AcDbEntity
8
0
100
AcDbPolyline
90
4
70
1
43
0.0
10
288.40111896635119
20
150.22389388151342
10
286.66857479018103
20
152.79455346178048
10
293.38545949991124
20
157.3215237285475
10
295.11800367608129
20
154.75086414828047
0
ENDSEC
0
SECTION
2
OBJECTS
0
DICTIONARY
5
C
100
AcDbDictionary
3
ACAD_GROUP
350
D
3
ACAD_MLINESTYLE
350
17
0
DICTIONARY
5
D
100
AcDbDictionary
0
DICTIONARY
5
1A
330
C
100
AcDbDictionary
0
DICTIONARY
5
17
100
AcDbDictionary
0
ENDSEC
0
EOF
